<svg xmlns="http://www.w3.org/2000/svg" viewBox="0 0 53.13 71.21"><defs><style>.cls-1{fill:#fff;}.cls-2{fill:#407bff;}.cls-3{fill:#ebebeb;}</style></defs><g id="Capa_2" data-name="Capa 2"><g id="Window_No_Data" data-name="Window No Data"><polygon class="cls-1" points="44.27 52.89 40.94 6.57 30.83 0.48 3.03 0.48 6.8 52.89 44.27 52.89"/><path class="cls-2" d="M44.27,53.37H6.8a.47.47,0,0,1-.48-.45L2.54.52A.51.51,0,0,1,2.67.15.51.51,0,0,1,3,0h27.8a.45.45,0,0,1,.25.07L41.19,6.15a.5.5,0,0,1,.23.38l3.34,46.32a.5.5,0,0,1-.13.37A.48.48,0,0,1,44.27,53.37Zm-37-1h36.5L40.47,6.85,30.7,1H3.55Z"/><polygon class="cls-3" points="40.94 6.57 30.83 0.48 34.54 8.54 40.94 6.57"/><path class="cls-2" d="M34.54,9a.5.5,0,0,1-.44-.28L30.39.69a.49.49,0,0,1,.12-.57.48.48,0,0,1,.57,0L41.19,6.15a.51.51,0,0,1,.23.48.48.48,0,0,1-.34.4l-6.4,2ZM31.93,1.71,34.8,8l5-1.54Z"/><path class="cls-2" d="M18.71,24.09a1.94,1.94,0,0,1-2,2.12,2.31,2.31,0,0,1-2.27-2.12,1.94,1.94,0,0,1,2-2.11A2.31,2.31,0,0,1,18.71,24.09Z"/><path class="cls-2" d="M32.45,24.09a2,2,0,0,1-2,2.12,2.32,2.32,0,0,1-2.27-2.12,2,2,0,0,1,2-2.11A2.32,2.32,0,0,1,32.45,24.09Z"/><path class="cls-2" d="M36.32,37.82a.48.48,0,0,1-.48-.45c-.25-3.4-5.58-6.17-11.9-6.17-4.19,0-7.94,1.25-9.81,3.25A3.74,3.74,0,0,0,13,37.3a.48.48,0,1,1-1,.07,4.74,4.74,0,0,1,1.39-3.58c2.05-2.19,6.07-3.56,10.52-3.56,6.93,0,12.58,3.11,12.87,7.07a.49.49,0,0,1-.45.52Z"/><path class="cls-2" d="M10.91,19.81a.51.51,0,0,1-.33-.13.49.49,0,0,1,0-.69l2.13-2.29a.49.49,0,0,1,.68,0,.48.48,0,0,1,0,.68l-2.12,2.29A.52.52,0,0,1,10.91,19.81Z"/><path class="cls-2" d="M35.33,19.81a.51.51,0,0,1-.33-.13l-2.46-2.29a.5.5,0,0,1,0-.69.49.49,0,0,1,.68,0L35.66,19a.49.49,0,0,1,0,.68A.48.48,0,0,1,35.33,19.81Z"/><path class="cls-2" d="M0,63.24H2.26l3.26,4.34-.31-4.34H7.49l.56,7.83H5.77l-3.24-4.3.31,4.3H.56Z"/><path class="cls-2" d="M9.08,67.16a3.75,3.75,0,0,1,.85-3,3.74,3.74,0,0,1,2.9-1.07,4.38,4.38,0,0,1,3.09,1,4.27,4.27,0,0,1,1.27,2.94,4.79,4.79,0,0,1-.3,2.25,3,3,0,0,1-1.24,1.37,4.16,4.16,0,0,1-2.14.49,5.2,5.2,0,0,1-2.22-.42,3.72,3.72,0,0,1-1.51-1.34A4.66,4.66,0,0,1,9.08,67.16Zm2.42,0a2.77,2.77,0,0,0,.56,1.71,1.63,1.63,0,0,0,1.24.52,1.38,1.38,0,0,0,1.17-.51,2.8,2.8,0,0,0,.3-1.82,2.63,2.63,0,0,0-.57-1.62A1.62,1.62,0,0,0,13,64.94a1.35,1.35,0,0,0-1.14.52A2.49,2.49,0,0,0,11.5,67.17Z"/><path class="cls-2" d="M21.9,63.24h3.59a4.51,4.51,0,0,1,1.74.29,3.06,3.06,0,0,1,1.14.83,3.76,3.76,0,0,1,.71,1.25,6.3,6.3,0,0,1,.3,1.52,5.32,5.32,0,0,1-.14,2,3,3,0,0,1-.71,1.16,2.38,2.38,0,0,1-1.05.62,5.49,5.49,0,0,1-1.42.21h-3.6ZM24.44,65l.31,4.28h.59a2.42,2.42,0,0,0,1.07-.17,1,1,0,0,0,.46-.59A3.7,3.7,0,0,0,27,67.18a2.78,2.78,0,0,0-.53-1.7A1.84,1.84,0,0,0,25.05,65Z"/><path class="cls-2" d="M35.19,69.78H32.44l-.29,1.29H29.68l2.38-7.83H34.7l3.51,7.83H35.68Zm-.62-1.69L33.5,65.27l-.65,2.82Z"/><path class="cls-2" d="M37.11,63.24h7.36l.14,1.94H42.14l.42,5.89H40.14l-.42-5.89H37.25Z"/><path class="cls-2" d="M50.11,69.78H47.36l-.29,1.29H44.6L47,63.24h2.64l3.51,7.83H50.59Zm-.63-1.69-1.06-2.82-.66,2.82Z"/></g></g></svg>