<svg xmlns="http://www.w3.org/2000/svg" viewBox="0 0 294.21 43.23"><g data-name="Layer 2"><path d="M113 29.46a8.27 8.27 0 0 0 1.56 4.19c1.42 1.69 3.84 2.53 7.28 2.53a15.43 15.43 0 0 0 5-.67q3.66-1.27 3.66-4.74a3.51 3.51 0 0 0-1.79-3.14 19.44 19.44 0 0 0-5.71-1.91l-4.43-1q-6.52-1.44-9-3.14-4.12-2.82-4.13-8.85a11.79 11.79 0 0 1 4-9.13Q113.59 0 121.42 0a18.18 18.18 0 0 1 11.17 3.43q4.62 3.42 4.84 9.94h-8.21a5.85 5.85 0 0 0-3.3-5.24 11.2 11.2 0 0 0-5.09-1 9.72 9.72 0 0 0-5.4 1.33 4.21 4.21 0 0 0-2 3.72 3.52 3.52 0 0 0 2 3.28 24.86 24.86 0 0 0 5.43 1.69l7.14 1.66a18.27 18.27 0 0 1 7.07 3c2.44 1.92 3.66 4.71 3.66 8.35a11.76 11.76 0 0 1-4.33 9.31q-4.33 3.7-12.25 3.7-8.07 0-12.7-3.65a12.08 12.08 0 0 1-4.63-10zm55.18 8.93q-3.84 4.72-11.63 4.73t-11.62-4.73A17.46 17.46 0 0 1 141.1 27a17.6 17.6 0 0 1 3.83-11.34q3.82-4.8 11.62-4.79t11.63 4.79A17.65 17.65 0 0 1 172 27a17.51 17.51 0 0 1-3.82 11.39zM161.85 34q1.86-2.46 1.86-7t-1.86-7a7 7 0 0 0-10.67 0c-1.24 1.64-1.87 4-1.87 7s.63 5.37 1.87 7a7 7 0 0 0 10.67 0zm21.42-22.15v18.23a9.64 9.64 0 0 0 .61 3.88c.72 1.54 2.13 2.3 4.22 2.3q4 0 5.53-3.27a12 12 0 0 0 .77-4.69V11.85h8v30.24h-7.69v-4.27c-.07.09-.26.37-.55.83a5.88 5.88 0 0 1-1.05 1.22 10.83 10.83 0 0 1-3.59 2.27 12.07 12.07 0 0 1-4 .61q-6.69 0-9-4.82-1.31-2.67-1.3-7.85V11.85zm41.36-.71h.68v8.1c-.5-.05-.95-.09-1.33-.11h-.95c-3.18 0-5.31 1-6.41 3.11a12.12 12.12 0 0 0-.91 5.38v14.47h-8V11.85h7.54v5.27a16.84 16.84 0 0 1 3.23-4.12 8.74 8.74 0 0 1 5.77-1.85zm21.13 11.56a7.09 7.09 0 0 0-1.14-3.06 4.78 4.78 0 0 0-4.14-1.83 5.44 5.44 0 0 0-5.48 4 16.45 16.45 0 0 0-.78 5.59 15.14 15.14 0 0 0 .78 5.34 5.27 5.27 0 0 0 5.34 3.77 4.71 4.71 0 0 0 3.94-1.51 7.4 7.4 0 0 0 1.42-3.89h8.08a13.32 13.32 0 0 1-2.61 6.83q-3.72 5.19-11 5.19t-10.75-4.33Q226 34.46 226 27.56q0-7.77 3.8-12.11t10.5-4.32a15.84 15.84 0 0 1 9.32 2.55q3.63 2.55 4.29 9zm32.08-10.24a12.35 12.35 0 0 1 5.23 4.47 14.88 14.88 0 0 1 2.41 6.26 38.82 38.82 0 0 1 .26 6h-22c.12 3 1.18 5.16 3.16 6.38a8 8 0 0 0 4.36 1.14 6.71 6.71 0 0 0 4.39-1.39 6.53 6.53 0 0 0 1.63-2.08h8.07a9.86 9.86 0 0 1-2.93 5.46q-4.06 4.42-11.37 4.42a16.46 16.46 0 0 1-10.66-3.73q-4.6-3.72-4.61-12.1 0-7.86 4.16-12A14.59 14.59 0 0 1 270.73 11a17.13 17.13 0 0 1 7.11 1.46zM266 19.29a8.21 8.21 0 0 0-2.1 4.71h13.63a6.63 6.63 0 0 0-2.11-4.78 7 7 0 0 0-4.69-1.63 6.28 6.28 0 0 0-4.73 1.7zM5.68 5.47a16.84 16.84 0 0 1 12.57-5q10.21 0 14.94 6.77A14.7 14.7 0 0 1 36 14.82h-8.56a11.63 11.63 0 0 0-2.09-4.44c-1.53-1.78-3.78-2.67-6.77-2.67a8.33 8.33 0 0 0-7.2 3.76q-2.64 3.77-2.64 10.64t2.78 10.31a8.74 8.74 0 0 0 7.07 3.43 8 8 0 0 0 6.7-2.94 12.8 12.8 0 0 0 2.12-4.75h8.49A18.43 18.43 0 0 1 30.29 39a16.36 16.36 0 0 1-11.57 4.19Q10 43.23 5 37.57T0 22Q0 11.26 5.68 5.47zm48.47 18.22a12.32 12.32 0 0 0 3.16-.69A2.38 2.38 0 0 0 59 20.75a2.64 2.64 0 0 0-1.3-2.56 8.2 8.2 0 0 0-3.84-.71c-1.9 0-3.24.46-4 1.39a5.76 5.76 0 0 0-1.12 2.77h-7.65a11.59 11.59 0 0 1 2.23-6.52q3.15-4 10.81-4a19.17 19.17 0 0 1 8.86 2c2.58 1.31 3.88 3.79 3.88 7.43V37.9a4.43 4.43 0 0 0 .52 2.1 2.83 2.83 0 0 0 1.17.91v1.17H60a8.6 8.6 0 0 1-.5-1.72 17 17 0 0 1-.22-1.83 16.47 16.47 0 0 1-3.8 3A11.48 11.48 0 0 1 49.63 43a10 10 0 0 1-6.82-2.34A8.37 8.37 0 0 1 40.12 34c0-3.71 1.44-6.41 4.33-8.07a19.32 19.32 0 0 1 7-1.94zM59 27.38a8.44 8.44 0 0 1-1.53.77 13.59 13.59 0 0 1-2.12.54l-1.8.33a12.18 12.18 0 0 0-3.64 1.08A3.61 3.61 0 0 0 48 33.46a3.51 3.51 0 0 0 1.14 2.93 4.33 4.33 0 0 0 2.77.9 8.28 8.28 0 0 0 4.78-1.5c1.45-1 2.21-2.82 2.26-5.46zm22.85 14.71h-7.91V1.19h7.91zm15.78 0h-7.9V1.19h7.9zm195.03-29a5.14 5.14 0 0 1-8.75-3.69 4.92 4.92 0 0 1 1.61-3.75 5 5 0 0 1 3.54-1.4 5 5 0 0 1 3.64 1.51 5 5 0 0 1 1.51 3.64 5 5 0 0 1-1.55 3.69zM286 6.42a4.12 4.12 0 0 0-1.23 3 4.14 4.14 0 0 0 1.26 3 4.21 4.21 0 0 0 6 0 4.19 4.19 0 0 0 1.24-3 4.09 4.09 0 0 0-1.24-3 4 4 0 0 0-3-1.29A4.08 4.08 0 0 0 286 6.42zm.77 5.84v-5.7h2.77a2.7 2.7 0 0 1 1.12.29 1.44 1.44 0 0 1 .76 1.37 1.25 1.25 0 0 1-.4 1 1.86 1.86 0 0 1-1 .38 1.8 1.8 0 0 1 .81.33 1.54 1.54 0 0 1 .51 1.28v.51a1 1 0 0 0 0 .17.94.94 0 0 0 0 .16l.05.16h-1.42a4 4 0 0 1-.1-.79 2.26 2.26 0 0 0-.09-.69.72.72 0 0 0-.42-.42 1.46 1.46 0 0 0-.51-.09h-.64v2zm2.73-4.58a2.52 2.52 0 0 0-.87-.12h-.36v1.66h.58a1.35 1.35 0 0 0 .81-.21.78.78 0 0 0 .3-.68.66.66 0 0 0-.43-.65z" fill="#006db8" data-name="Layer 1"/></g></svg>